# xmcd
#
# Track frame offsets:
#	150
#	15058
#	28275
#	42113
#	56848
#	69163
#	81040
#	93730
#	105375
#	118490
#	130753
#	144673
#	158328
#	171045
#	181393
#	194103
#	204900
#	217195
#	230383
#	244198
#	256123
#	269548
#	283575
#
# Disc length: 3953 seconds
# Revision: 3
# Processed by: cddbd v1.5.2PL0 Copyright (c) Steve Scherf et al.
# Submitted via: dBpowerAMP V12.0
#
DISCID=480f6f17
DTITLE=Little Walter - The Chess Years 1952-1963 [Disc 2]
DYEAR=1900
DGENRE=Blues
TTITLE0=Mercy Babe
TTITLE1=Last Night
TTITLE2=You'd Better Watch Yourself
TTITLE3=Blue Eight
TTITLE4=Last Night
TTITLE5=Mellow Down Easy
TTITLE6=Thunderbird
TTITLE7=My Babe
TTITLE8=Roller Coaster
TTITLE9=I Got to Go
TTITLE10=Little Girl
TTITLE11=Crazy for My Baby
TTITLE12=Can't Stop Loving You
TTITLE13=Hate to See You Go
TTITLE14=One More Chance With You
TTITLE15=Who
TTITLE16=Boom, Boom Out Goes the Lights
TTITLE17=It Ain't Right
TTITLE18=Flying Saucer
TTITLE19=It's Too Late Brother
TTITLE20=Teenage Beat
TTITLE21=Take Me Back
TTITLE22=Just a Feeling
EXTD=
EXTT0=
EXTT1=
EXTT2=
EXTT3=
EXTT4=
EXTT5=
EXTT6=
EXTT7=
EXTT8=
EXTT9=
EXTT10=
EXTT11=
EXTT12=
EXTT13=
EXTT14=
EXTT15=
EXTT16=
EXTT17=
EXTT18=
EXTT19=
EXTT20=
EXTT21=
EXTT22=
PLAYORDER=
